<!--?xml version="1.0" standalone="no"?-->
              <svg id="sw-js-blob-svg" viewBox="0 0 100 100" xmlns="http://www.w3.org/2000/svg" version="1.1">
                    <defs> 
                        <linearGradient id="sw-gradient" x1="0" x2="1" y1="1" y2="0">
                            <stop id="stop1" stop-color="rgba(248, 117, 55, 1)" offset="0%"></stop>
                            <stop id="stop2" stop-color="rgba(251, 168, 31, 1)" offset="100%"></stop>
                        </linearGradient>
                    </defs>
                <path fill="url(#sw-gradient)" d="M22.9,-28.8C29.2,-22,33.5,-14.3,34.9,-6.2C36.3,2,34.9,10.6,30.8,17.9C26.8,25.3,20.2,31.2,12.6,33.5C5,35.8,-3.5,34.4,-10.1,30.7C-16.6,27,-21.3,21,-24.6,14.5C-28,8.1,-30.1,1.2,-29.8,-6.1C-29.5,-13.5,-27,-21.3,-21.6,-28.3C-16.3,-35.2,-8.1,-41.4,0.1,-41.5C8.3,-41.6,16.6,-35.6,22.9,-28.8Z" width="100%" height="100%" transform="translate(50 50)" stroke-width="0" style="transition: all 0.3s ease 0s;"></path>
              </svg>